<svg xmlns="http://www.w3.org/2000/svg" fill="none" viewBox="0 0 24 24" id="Kafka--Streamline-Svg-Logos" height="24" width="24">
  <desc>
    Kafka Streamline Icon: https://streamlinehq.com
  </desc>
  <path fill="#1a1919" d="M2.535025 7.592925c-0.1185975 -0.11905 -0.2831375 -0.1924 -0.4665625 -0.1924 -0.1829625 0 -0.3462375 0.07335 -0.4633375 0.1924h-0.002995c-0.11825 0.11825 -0.1915975 0.283275 -0.1915975 0.465525 0 0.183325 0.0733475 0.347275 0.1915975 0.464375l0.002995 0.003225c0.1171 0.118025 0.280375 0.19035 0.4633375 0.19035 0.183425 0 0.347965 -0.072325 0.4665625 -0.19035l0.001375 -0.003225c0.118725 -0.1171 0.19115 -0.28105 0.19115 -0.464375 0 -0.18225 -0.072425 -0.347275 -0.19115 -0.465525h-0.001375ZM2.0684625 16.599475c0.183425 0 0.347965 -0.07475 0.4665625 -0.1916l0.001375 -0.00345c0.118725 -0.11665 0.19115 -0.28165 0.19115 -0.463 0 -0.183325 -0.072425 -0.3475 -0.19115 -0.466325h-0.001375c-0.1185975 -0.120225 -0.2831375 -0.192875 -0.4665625 -0.192875 -0.1829625 0 -0.3462375 0.07265 -0.4633375 0.192875h-0.002995c-0.11825 0.118825 -0.1915975 0.283 -0.1915975 0.466325 0 0.18135 0.0733475 0.34635 0.1915975 0.463l0.002995 0.00345c0.1171 0.11685 0.280375 0.1916 0.4633375 0.1916Zm3.5847625 -1.9935c0.162925 -0.042825 0.310425 -0.147375 0.4006 -0.305575l0.012075 -0.02315c0.08015 -0.1498 0.094775 -0.322975 0.051925 -0.4767 -0.043175 -0.164075 -0.148875 -0.309625 -0.306725 -0.400225l-0.009325 -0.006225c-0.15385 -0.084525 -0.32885 -0.10295 -0.489825 -0.059075 -0.163625 0.040875 -0.310675 0.1498 -0.40025 0.306625 -0.090725 0.1559 -0.109625 0.335075 -0.0662 0.49995 0.044775 0.16225 0.149675 0.308825 0.306625 0.400475h0.000925c0.157275 0.0904 0.33505 0.106625 0.500175 0.0639ZM2.743325 11.325775c-0.172725 -0.17225 -0.4110675 -0.28025 -0.6748625 -0.28025 -0.2634475 0 -0.501105 0.108 -0.673475 0.28025 -0.171795 0.172025 -0.277725 0.409325 -0.277725 0.673125s0.10593 0.50215 0.277725 0.676125c0.17237 0.171225 0.4100275 0.2782 0.673475 0.2782 0.263795 0 0.5021375 -0.106975 0.6748625 -0.2782 0.17225 -0.173975 0.278175 -0.412325 0.278175 -0.676125s-0.105925 -0.5011 -0.278175 -0.673125Zm-0.37952 -1.121375c0.38297 0.0631 0.726795 0.246525 0.98967 0.511225h0.00195c0.0418 0.041675 0.08245 0.087625 0.120325 0.13345l0.6569 -0.379975c-0.088325 -0.2669 -0.092475 -0.5459 -0.021425 -0.8076 0.0936 -0.3504 0.3208 -0.66405 0.661375 -0.8606l0.011075 -0.007025c0.3369 -0.19055 0.71975 -0.230275 1.0653 -0.136675 0.350025 0.09385 0.66575 0.322075 0.8623 0.662075v0.00105c0.195625 0.338175 0.23525 0.7262 0.141975 1.07555 -0.09315 0.350275 -0.321125 0.6661 -0.661375 0.8615l-0.0897 0.052975h-0.0091c-0.314675 0.1498 -0.6607 0.173275 -0.9785 0.089575 -0.2609 -0.069075 -0.500175 -0.21485 -0.687625 -0.42155l-0.655975 0.37895c0.075425 0.199425 0.1171 0.4144 0.1171 0.641575 0 0.226025 -0.041675 0.444125 -0.1171 0.644575l0.655975 0.3779c0.18745 -0.2099 0.426725 -0.352325 0.687625 -0.42165 0.350175 -0.095675 0.7382 -0.05505 1.0773 0.14265l0.02175 0.01015v0.001025c0.3276 0.198625 0.547525 0.50515 0.639625 0.851375 0.093275 0.347275 0.05365 0.73555 -0.141975 1.0744l-0.01185 0.0236 -0.001375 -0.00195c-0.19645 0.326675 -0.506175 0.547975 -0.84805 0.641575 -0.3506 0.092475 -0.73875 0.052975 -1.0774 -0.14185v-0.00265c-0.340575 -0.1969 -0.567775 -0.511225 -0.661375 -0.860925 -0.07105 -0.260575 -0.0669 -0.539575 0.021425 -0.80635l-0.6569 -0.37905c-0.037875 0.045825 -0.078525 0.0897 -0.120325 0.131375l-0.00195 0.002075c-0.262875 0.2638 -0.6067 0.4471 -0.98967 0.508125v0.759025c0.272895 0.057 0.51722 0.19345 0.708595 0.384925l0.001025 0.00195c0.25655 0.2554 0.41545 0.6112 0.41545 1.002225 0 0.389875 -0.1589 0.7436 -0.41545 1.00025l-0.001025 0.004025c-0.258375 0.25655 -0.612795 0.41545 -1.0039375 0.41545 -0.38907 0 -0.7444025 -0.1589 -1.00221 -0.41545h-0.001035v-0.004025c-0.25677 -0.25665 -0.416015 -0.610375 -0.416015 -1.00025 0 -0.391025 0.159245 -0.746825 0.416015 -1.002225v-0.00195h0.001035c0.191255 -0.191475 0.43605 -0.327925 0.7079025 -0.384925v-0.759025c-0.3828525 -0.061025 -0.726095 -0.244325 -0.9885075 -0.508125l-0.0027625 -0.002075C0.455185 12.95425 0.25 12.50105 0.25 11.9989c0 -0.5011 0.205185 -0.9543 0.532885 -1.283275h0.0027625c0.2624125 -0.2647 0.605655 -0.448125 0.9885075 -0.511225v-0.7558c-0.2718525 -0.058975 -0.5166475 -0.1954 -0.7079025 -0.38585h-0.001035v-0.002075c-0.25677 -0.2577 -0.416015 -0.611075 -0.416015 -1.002225 0 -0.38905 0.159245 -0.74555 0.416015 -1.0022l0.001035 -0.001025c0.2578075 -0.257575 0.61314 -0.416375 1.00221 -0.416375 0.3911425 0 0.7455625 0.1588 1.0039375 0.416375v0.001025h0.001025c0.25655 0.25665 0.41545 0.61315 0.41545 1.0022 0 0.39115 -0.1589 0.744525 -0.41545 1.002225l-0.001025 0.002075c-0.191375 0.19045 -0.4357 0.326875 -0.708595 0.38585v0.7558Zm3.69002 -0.5041 -0.00565 -0.0083c-0.0905 -0.152675 -0.235125 -0.254475 -0.39495 -0.298325 -0.165125 -0.043875 -0.3429 -0.02545 -0.5011 0.065275h0.000925c-0.157875 0.089575 -0.26345 0.23605 -0.30755 0.40025 -0.043425 0.162925 -0.024525 0.343 0.0662 0.49995l0.003125 0.004025c0.090825 0.154875 0.235575 0.258725 0.397125 0.300525 0.16235 0.04595 0.343225 0.026475 0.49915 -0.06425l0.0084 -0.004025c0.153475 -0.09165 0.255725 -0.236275 0.298325 -0.395175 0.043525 -0.163975 0.02615 -0.343125 -0.064 -0.49995Z" stroke-width="0.25"></path>
  <path fill="#1a1919" d="M8.9685 9.9223h0.733v2.237475l1.057025 -1.169175h0.8789l-1.27615 1.35455 1.28145 1.717025h-0.8393l-1.101925 -1.5337v1.5337h-0.733V9.9223Zm3.5204 2.61735c0 0.381 0.27405 0.93495 0.934275 0.93495 0.408525 0 0.6774 -0.2129 0.816825 -0.4919 0.073 -0.1354 0.106625 -0.280125 0.117925 -0.43075 0.00505 -0.145775 -0.02245 -0.2973 -0.0844 -0.4319 -0.1285 -0.29015 -0.413725 -0.54175 -0.85575 -0.54175 -0.592775 0 -0.928875 0.480625 -0.928875 0.956275v0.005075Zm2.59615 1.522525h-0.73335V13.62025c-0.195175 0.357425 -0.603825 0.5368 -1.0348 0.5368 -0.984825 0 -1.560875 -0.76695 -1.560875 -1.63365 0 -0.96755 0.69925 -1.62755 1.560875 -1.62755 0.559475 0 0.90065 0.2965 1.0348 0.5429v-0.44815h0.73335v3.071575ZM15.915 11.55585h-0.37985v-0.56525H15.915v-0.17305c0 -0.912625 0.693975 -0.967675 1.220175 -0.973775v0.5642c-0.185025 0 -0.486825 0 -0.486825 0.4318v0.150825h0.486825v0.56525h-0.486825v2.506325H15.915V11.55585Zm1.718625 -1.63355h0.732775v2.237475l1.05725 -1.169175h0.8789l-1.276125 1.35455 1.2812 1.717025h-0.8393l-1.101925 -1.5337v1.5337h-0.732775V9.9223Zm3.5204 2.61735c0 0.381 0.27395 0.93495 0.9343 0.93495 0.40795 0 0.6768 -0.2129 0.816475 -0.4919 0.073225 -0.1354 0.106975 -0.280125 0.118025 -0.43075 0.00505 -0.145775 -0.02245 -0.2973 -0.084525 -0.4319 -0.128275 -0.29015 -0.413475 -0.54175 -0.8554 -0.54175 -0.592875 0 -0.928875 0.480625 -0.928875 0.956275v0.005075Zm2.595925 1.522525h-0.733125V13.62025c-0.19575 0.357425 -0.60405 0.5368 -1.0348 0.5368 -0.984825 0 -1.560425 -0.76695 -1.560425 -1.63365 0 -0.96755 0.69905 -1.62755 1.560425 -1.62755 0.55915 0 0.900675 0.2965 1.0348 0.5429v-0.44815h0.733125v3.071575Z" stroke-width="0.25"></path>
</svg>